<?xml version="1.0" encoding="UTF-8"?>
<svg width="64px" height="62px" viewBox="0 0 64 62" version="1.1" xmlns="http://www.w3.org/2000/svg" xmlns:xlink="http://www.w3.org/1999/xlink">
    <title>D8520BDB-FCCA-4E9E-ADF8-1DE224BEE73B</title>
    <defs>
        <linearGradient x1="50%" y1="0%" x2="50%" y2="100%" id="linearGradient-1">
            <stop stop-color="#4CBB9B" offset="0%"></stop>
            <stop stop-color="#41A2C5" offset="100%"></stop>
        </linearGradient>
        <circle id="path-2" cx="25" cy="25" r="25"></circle>
    </defs>
    <g id="Page-1" stroke="none" stroke-width="1" fill="none" fill-rule="evenodd">
        <g id="01_medplus_uvod" transform="translate(-1337.000000, -1568.000000)">
            <g id="Benefity" transform="translate(150.000000, 1518.000000)">
                <g id="5" transform="translate(1061.000000, 50.000000)">
                    <g id="ico_doprava" transform="translate(126.000000, 0.000000)">
                        <g id="Oval">
                            <use fill="url(#linearGradient-1)" xlink:href="#path-2"></use>
                            <use fill="#FFFFFF" xlink:href="#path-2"></use>
                        </g>
                        <g id="delivery-(1)" transform="translate(7.000000, 20.000000)" fill="#475558">
                            <path d="M22.3781538,0 C22.8379408,0 23.213118,0.377061051 23.213118,0.841654131 C23.213118,1.30512501 22.8379408,1.68330826 22.3781538,1.68330826 L22.3781538,1.68330826 L13.1163969,1.68330826 L12.6345669,6.6953025 L21.2648682,6.6953025 C21.7261024,6.6953025 22.0998324,7.07213911 22.0998324,7.53695663 C22.0998324,8.00177415 21.7261024,8.37861076 21.2648682,8.37861076 L21.2648682,8.37861076 L12.4726952,8.37861076 L11.4480271,19.039002 L16.8103899,19.039002 C17.2716241,19.039002 17.6453541,19.4158386 17.6453541,19.8806561 C17.6453541,20.3454736 17.2716241,20.7223102 16.8103899,20.7223102 L16.8103899,20.7223102 L11.2861554,20.7223102 L10.8008742,25.7720106 L39.8140989,25.7720106 L40.2333622,20.9194818 L40.2333622,20.9194818 L40.2338076,20.9151052 L41.8954976,1.68330826 L25.7180106,1.68330826 C25.2571104,1.68330826 24.8830464,1.30512501 24.8830464,0.841654131 C24.8830464,0.377061051 25.2571104,0 25.7180106,0 L25.7180106,0 L42.8201927,0.00060318546 L42.8201927,0.00060318546 L42.8347767,0.00145886716 L42.8347767,0.00145886716 L42.8785288,0.00314217542 C42.8808667,0.00336661652 42.882982,0.00381549873 42.8853199,0.00403993983 C42.8990133,0.00527436589 42.9123727,0.00763099745 42.9259548,0.00965096737 C42.9404275,0.0117831578 42.9551229,0.0135786866 42.9692616,0.0163842004 C42.9807284,0.0186286114 42.9916386,0.0218830074 43.0029942,0.0245763006 C43.0191368,0.0285040199 43.0355021,0.0323195186 43.0511994,0.0371450023 C43.0584358,0.0393894133 43.0653381,0.0423071476 43.0725745,0.0446637792 C43.0919457,0.0511725712 43.1112055,0.0579058042 43.1297974,0.0657612428 L43.1297974,0.0657612428 C43.4369529,0.199864801 43.6407955,0.500054774 43.6407955,0.840644146 L43.6407955,0.840644146 L43.6400579,0.880692855 L43.6400579,0.880692855 L43.6381236,0.914485268 L42.5569006,13.4280867 L46.1454654,13.4280867 C52.1307114,13.4280867 57,18.3363891 57,24.3695904 C57,24.877725 56.946117,25.7077082 56.8620639,26.6933413 C56.8617299,26.6965957 56.8616186,26.6999623 56.8612846,26.7032167 C56.5692698,30.1223525 55.9154372,35.4100726 55.8800347,35.6960106 L55.8800347,35.6960106 L55.8742456,35.7300134 C55.8721304,35.7429187 55.8703491,35.7559363 55.8675659,35.7686173 C55.8644487,35.7829815 55.8605522,35.7968968 55.8568783,35.8109244 C55.8536498,35.8225953 55.8509779,35.8346029 55.8473041,35.8462739 C55.8416263,35.8643414 55.8349466,35.8817356 55.8281556,35.8991298 C55.8253724,35.9061997 55.8231458,35.913494 55.8202513,35.9205639 C55.8098977,35.9452524 55.7983195,35.9691554 55.7857394,35.9924973 L55.7857394,35.9924973 C55.7716007,36.018308 55.7587979,36.0394054 55.7452158,36.0599418 C55.741542,36.0655528 55.7373115,36.070715 55.7335263,36.0762138 C55.7223934,36.0920369 55.7112606,36.1077478 55.6990144,36.1230098 L55.6990144,36.1230098 L55.6813132,36.1434339 C55.6702917,36.1561148 55.6592702,36.1686835 55.647692,36.1805789 C55.6403443,36.1882099 55.63244,36.195392 55.6248696,36.2026863 C55.6139594,36.2131229 55.6031606,36.2233349 55.5916937,36.2330981 C55.5827874,36.2407291 55.5735472,36.2479112 55.5644182,36.2552056 C55.5533967,36.2637343 55.5425978,36.2721509 55.5312423,36.2801185 C55.5212227,36.2873006 55.5107579,36.2941461 55.500293,36.3008793 C55.4890488,36.3080614 55.4776933,36.3150191 55.4662264,36.3217524 L55.4498055,36.3310105 L55.4498055,36.3310105 L55.4330505,36.3399321 C55.4211384,36.3461042 55.4088922,36.3519397 55.3966461,36.3576629 C55.3854019,36.3627129 55.3743804,36.3677628 55.3628022,36.3723638 C55.3493314,36.3778626 55.335638,36.3828003 55.3219446,36.3875136 C55.3112571,36.3912169 55.3006809,36.3950324 55.2897707,36.3982868 C55.2737394,36.4031122 55.2572627,36.4071522 55.2408974,36.4109677 C55.2318798,36.4130999 55.2230849,36.4155687 55.2139559,36.4173643 L55.2139559,36.4173643 L55.1494967,36.4272397 L55.1494967,36.4272397 L55.135024,36.4292596 C55.1078598,36.4319529 55.080473,36.4336362 55.0526408,36.4336362 L55.0526408,36.4336362 L51.332931,36.433524 C50.9223513,39.5705373 48.2541397,42 45.0319572,42 C41.8096633,42 39.1417857,39.5705373 38.731206,36.433524 L38.731206,36.433524 L25.3384916,36.433524 C24.9280232,39.5705373 22.2600342,42 19.0378517,42 C15.8154465,42 13.1474576,39.5705373 12.7369892,36.433524 L12.7369892,36.433524 L9.01872664,36.4336362 C8.99178512,36.4336362 8.96462096,36.4322896 8.93723413,36.4295963 L8.93723413,36.4295963 C8.91084926,36.426903 8.88646831,36.4229753 8.86219868,36.4183742 L8.86219868,36.4183742 L8.85217911,36.4168032 C8.82668487,36.4115288 8.80174727,36.40502 8.77703233,36.3976134 C8.77502842,36.3969401 8.77313583,36.3966035 8.77113192,36.3960424 C8.74942285,36.3891969 8.72838175,36.381117 8.70745198,36.3727005 C8.70277618,36.370905 8.69787773,36.3695583 8.69331326,36.3676506 C8.67817257,36.3611418 8.66358853,36.3535108 8.64878183,36.345992 C8.57764288,36.3106425 8.512627,36.2655299 8.45507014,36.2123373 C8.44571854,36.2039208 8.43603295,36.1957287 8.42712667,36.186751 C8.42545674,36.1852922 8.4241208,36.1832722 8.42245087,36.1815889 C8.33294271,36.0897925 8.26436431,35.9773475 8.22395205,35.8521093 C8.22306142,35.8489672 8.22172548,35.8460494 8.22072352,35.8430195 L8.22072352,35.8430195 L8.21215122,35.80969 C8.20792073,35.7938669 8.20335626,35.7783804 8.20012773,35.7621085 C8.19890312,35.7559363 8.19834648,35.7495398 8.19723319,35.7432554 C8.19333669,35.7219335 8.18966285,35.7004994 8.18743628,35.6787286 C8.18665698,35.6719954 8.18687964,35.6650377 8.18621166,35.6581922 C8.18465307,35.6368703 8.18309447,35.6155484 8.18309447,35.5938899 C8.18309447,35.5931043 8.18298314,35.592431 8.18298314,35.5917577 C8.18298314,35.5760468 8.18454174,35.560897 8.18532104,35.5454106 C8.18598901,35.5337396 8.18587768,35.5222931 8.18699096,35.5106222 L8.18699096,35.5106222 L8.18732495,35.5073678 L8.18765894,35.5043379 L9.05034395,26.5290504 L9.05034395,26.5290504 L9.0505666,26.5264694 L9.60854535,20.7223102 L6.79126481,20.7223102 C6.33003059,20.7223102 5.95630061,20.3454736 5.95630061,19.8806561 C5.95630061,19.4158386 6.33003059,19.039002 6.79126481,19.039002 L6.79126481,19.039002 L9.77030574,19.039002 L10.7949738,8.37861076 L0.834964199,8.37861076 C0.373729976,8.37861076 0,8.00177415 0,7.53695663 C0,7.07213911 0.373729976,6.6953025 0.834964199,6.6953025 L0.834964199,6.6953025 L10.9568455,6.6953025 L11.5272931,0.760518673 L11.5272931,0.760518673 C11.5285177,0.7497455 11.529965,0.743236708 11.5307443,0.736391254 L11.5307443,0.736391254 L11.5405412,0.67242554 L11.5405412,0.67242554 C11.6249282,0.278306966 11.9651483,0 12.3573588,0 L12.3573588,0 Z M45.0319572,30.8665992 C42.4474646,30.8665992 40.3446908,32.9862209 40.3446908,35.5915332 C40.3446908,38.1968455 42.4473533,40.3164673 45.0319572,40.3164673 C47.6166723,40.3164673 49.7194462,38.1968455 49.7194462,35.5915332 C49.7194462,32.9862209 47.6166723,30.8665992 45.0319572,30.8665992 Z M19.0380744,30.8665992 C16.4534705,30.8665992 14.3505854,32.9862209 14.3505854,35.5915332 C14.3505854,38.1968455 16.4533592,40.3164673 19.0380744,40.3164673 C21.6226782,40.3164673 23.7254521,38.1968455 23.7254521,35.5915332 C23.7254521,32.9862209 21.6226782,30.8665992 19.0380744,30.8665992 Z M19.0380744,32.5053559 C20.7261493,32.5053559 22.0996098,33.8898208 22.0996098,35.591421 C22.0996098,37.2932457 20.7261493,38.6774862 19.0380744,38.6774862 C17.3499994,38.6774862 15.976539,37.2932457 15.976539,35.591421 C15.976539,33.8897086 17.3499994,32.5053559 19.0380744,32.5053559 Z M45.0319572,32.5053559 C46.7200321,32.5053559 48.0934926,33.8898208 48.0934926,35.591421 C48.0934926,37.2932457 46.7200321,38.6774862 45.0319572,38.6774862 C43.3438822,38.6774862 41.9704218,37.2932457 41.9704218,35.591421 C41.9704218,33.8897086 43.3438822,32.5053559 45.0319572,32.5053559 Z M19.0380744,34.1886641 C18.2706866,34.1886641 17.6464674,34.8178847 17.6464674,35.591421 C17.6464674,36.3649573 18.2706866,36.9941779 19.0380744,36.9941779 C19.8053508,36.9941779 20.4296814,36.3649573 20.4296814,35.591421 C20.4296814,34.8178847 19.8054621,34.1886641 19.0380744,34.1886641 Z M45.0319572,34.1886641 C44.2645694,34.1886641 43.6403502,34.8178847 43.6403502,35.591421 C43.6403502,36.3649573 44.2645694,36.9941779 45.0319572,36.9941779 C45.7993449,36.9941779 46.4235642,36.3649573 46.4235642,35.591421 C46.4235642,34.8178847 45.7993449,34.1886641 45.0319572,34.1886641 Z M46.1452428,21.8439547 L41.8299251,21.8439547 L41.4114411,26.6861592 C41.4113297,26.6882914 41.4108844,26.6900869 41.4106618,26.6921069 C41.4093258,26.7062467 41.4069879,26.7199376 41.404984,26.7338529 C41.4029801,26.7473194 41.4014215,26.7607859 41.3988609,26.7740279 L41.3944356,26.7942136 L41.3944356,26.7942136 L41.3846248,26.834108 L41.3846248,26.834108 L41.3794898,26.8538167 C41.3758159,26.8662732 41.3714741,26.8781686 41.367355,26.8901762 C41.3625678,26.9037548 41.3580034,26.9174458 41.3525483,26.9305756 C41.3480951,26.9417976 41.3430853,26.9524586 41.3381869,26.963344 L41.3381869,26.963344 L41.3188157,27.0036311 L41.3188157,27.0036311 L41.3022277,27.0334818 C41.2947687,27.0467238 41.2869757,27.0597414 41.2788487,27.0724223 C41.2727257,27.0818489 41.2662686,27.0910509 41.2597002,27.100253 C41.2510166,27.1124851 41.2422216,27.1246049 41.2329814,27.136388 C41.2258564,27.1453657 41.2185087,27.1541189 41.2110497,27.1628721 C41.2014754,27.1739819 41.1917898,27.1848673 41.1817702,27.1954161 C41.1735319,27.204057 41.165071,27.2124736 41.15661,27.2206657 C41.1465904,27.2304289 41.1362369,27.2398554 41.1256606,27.2490575 L41.1256606,27.2490575 L41.0972719,27.2730727 C41.0865843,27.281377 41.0758968,27.2894569 41.0648753,27.2973123 C41.0545217,27.3047189 41.0442795,27.3121254 41.0334806,27.3191953 L41.0334806,27.3191953 L40.9657928,27.3590336 C40.9538807,27.365318 40.9415232,27.3711534 40.9291657,27.3767645 C40.9178102,27.3821511 40.906566,27.3875376 40.8948765,27.3923631 C40.8812945,27.3979742 40.8672671,27.4027996 40.8532397,27.4077373 C40.8424408,27.4115528 40.8318646,27.4155928 40.8207317,27.4189594 C40.8044778,27.4238971 40.7877785,27.4278248 40.7710792,27.431977 C40.7619502,27.4341092 40.7529326,27.4366902 40.7436924,27.438598 C40.7223173,27.4428624 40.7006082,27.4460045 40.6787878,27.4485856 C40.6736667,27.4492589 40.6686569,27.4504934 40.6635358,27.45083 C40.636149,27.4536355 40.6084282,27.4553189 40.5804847,27.4553189 C40.5800394,27.4553189 40.5797054,27.4553189 40.5792601,27.4553189 L40.5792601,27.45487 L10.6391138,27.45487 L9.93785523,34.7496547 L12.7371005,34.7496547 C13.1474576,31.6125292 15.8156692,29.1827298 19.0380744,29.1827298 C22.2604795,29.1827298 24.9284685,31.6124169 25.3388255,34.7496547 L25.3388255,34.7496547 L38.7314286,34.7496547 C39.1417857,31.6125292 41.809886,29.1827298 45.0321798,29.1827298 C48.2546963,29.1827298 50.9227966,31.6124169 51.3331536,34.7496547 L51.3331536,34.7496547 L54.3130852,34.7496547 C54.4887617,33.2942663 54.8814175,29.9708547 55.1243364,27.3818144 C53.2117118,27.064118 52.086514,25.7617985 51.0786566,24.5945926 C49.8572709,23.1799403 48.7034617,21.8439547 46.1452428,21.8439547 L46.1452428,21.8439547 Z M47.4947676,15.2122812 L47.0628127,20.2114823 C49.769544,20.5160489 51.1815241,22.1505412 52.3381166,23.4900057 C53.2629229,24.5610386 54.0263028,25.4401744 55.2670596,25.6951395 C55.3066926,25.1434633 55.3300716,24.6851546 55.3300716,24.3697026 C55.3300716,19.7268017 51.9216364,15.8722503 47.4947676,15.2122812 L47.4947676,15.2122812 Z M45.8272884,15.1115071 L42.4113942,15.1115071 L41.9750976,20.1609831 L45.3909918,20.1609831 L45.8272884,15.1115071 Z M7.90432775,13.4281989 C8.36556197,13.4281989 8.73929195,13.8050355 8.73929195,14.269853 C8.73929195,14.7346705 8.36556197,15.1115071 7.90432775,15.1115071 L7.90432775,15.1115071 L3.82235477,15.1115071 C3.36112055,15.1115071 2.98739058,14.7346705 2.98739058,14.269853 C2.98739058,13.8050355 3.36112055,13.4281989 3.82235477,13.4281989 L3.82235477,13.4281989 Z" id="Combined-Shape"></path>
                        </g>
                    </g>
                </g>
            </g>
        </g>
    </g>
</svg>