<?xml version="1.0" encoding="UTF-8"?>
<svg width="62px" height="62px" viewBox="0 0 62 62" version="1.1" xmlns="http://www.w3.org/2000/svg" xmlns:xlink="http://www.w3.org/1999/xlink">
    <title>ico_darky</title>
    <defs>
        <linearGradient x1="50%" y1="0%" x2="50%" y2="100%" id="linearGradient-1">
            <stop stop-color="#4CBB9B" offset="0%"></stop>
            <stop stop-color="#41A2C5" offset="100%"></stop>
        </linearGradient>
        <circle id="path-2" cx="25" cy="25" r="25"></circle>
    </defs>
    <g id="Page-1" stroke="none" stroke-width="1" fill="none" fill-rule="evenodd">
        <g id="01_medplus_uvod" transform="translate(-1086.000000, -1468.000000)">
            <g id="Benefity" transform="translate(150.000000, 1418.000000)">
                <g id="4" transform="translate(808.000000, 50.000000)">
                    <g id="ico_darky" transform="translate(128.000000, 0.000000)">
                        <g id="Oval">
                            <use fill="url(#linearGradient-1)" xlink:href="#path-2"></use>
                            <use fill="#FFFFFF" xlink:href="#path-2"></use>
                        </g>
                        <g id="packaging" transform="translate(15.000000, 15.000000)" fill="#475558" fill-rule="nonzero">
                            <path d="M20.3478667,39.1640229 C20.1468437,35.2471604 17.9858229,31.6953313 14.5997667,29.7162396 L9.1885,23.7041563 C8.64173333,23.0914917 7.86545,22.7330188 7.04451667,22.7140229 C6.78239375,22.7105958 6.52085833,22.7414396 6.26666667,22.8056729 L6.26666667,12.5306896 C6.26666667,10.8002083 4.86381458,9.39735625 3.13333333,9.39735625 C1.40285208,9.39735625 -2.78295905e-15,10.8002083 -2.78295905e-15,12.5306896 L-2.78295905e-15,27.3568396 C0.000685416667,28.5554375 0.3060875,29.7342562 0.887516667,30.7823563 L7.83333333,43.2835729 L7.83333333,46.9973563 L9.4,46.9973563 L9.4,43.0806896 C9.40019583,42.9477187 9.36621875,42.8169021 9.3013,42.7007729 L2.25678333,30.0201729 C1.80499583,29.2051146 1.56754792,28.2887125 1.56666667,27.3568396 L1.56666667,12.5306896 C1.56666667,11.6654 2.26804375,10.9640229 3.13333333,10.9640229 C3.99862292,10.9640229 4.7,11.6654 4.7,12.5306896 L4.7,23.7738729 C3.71985417,24.9129375 3.742375,26.6038604 4.75248333,27.7163896 L11.1703333,34.7773562 L12.3296667,33.7237729 L5.91181667,26.6620229 C5.39951667,26.0999812 5.420275,25.2343 5.95881667,24.6974229 C6.23719375,24.4245292 6.61319375,24.2745208 7.003,24.2806896 C7.39270833,24.2904813 7.76107083,24.4604646 8.02133333,24.7506896 L13.5179833,30.8606896 C13.5878958,30.9307979 13.6669146,30.9911146 13.7529833,31.0400729 C16.8692792,32.8260729 18.7939292,36.1409437 18.8,39.7327229 L18.8,46.9973563 L20.3666667,46.9973563 L20.3666667,39.1640229 L20.3478667,39.1640229 Z" id="Path"></path>
                            <path d="M43.8666667,9.39735625 C42.1361854,9.39735625 40.7333333,10.8002083 40.7333333,12.5306896 L40.7333333,22.8072396 C39.6681958,22.5321917 38.538825,22.8788167 37.8115,23.7041563 L32.4025833,29.7146729 C29.0117292,31.6898479 26.8483583,35.2447125 26.6521333,39.1640229 L26.6333333,39.1640229 L26.6333333,46.9973563 L28.2,46.9973563 L28.2,39.7327229 C28.2080292,36.1262563 30.1474646,32.8005167 33.2822667,31.0173563 C33.3569771,30.9763292 33.4244417,30.9234542 33.4820167,30.8606896 L38.9755333,24.7506896 C39.2357958,24.4604646 39.6041583,24.2904813 39.9938667,24.2806896 C40.3839667,24.2727583 40.7605542,24.4231583 41.03805,24.6974229 C41.5765917,25.2343 41.59735,26.0999812 41.08505,26.6620229 L34.6703333,33.7222062 L35.8296667,34.7773562 L42.2475167,27.7179563 C43.2586042,26.6051333 43.2810271,24.9131333 42.3,23.7738729 L42.3,12.5306896 C42.3,11.6654 43.0013771,10.9640229 43.8666667,10.9640229 C44.7319562,10.9640229 45.4333333,11.6654 45.4333333,12.5306896 L45.4333333,27.2738062 C45.4321583,28.2588479 45.1670979,29.2255792 44.6656667,30.0734396 L37.694,42.7023396 C37.6312354,42.8185667 37.5989229,42.9486979 37.6,43.0806896 L37.6,46.9973563 L39.1666667,46.9973563 L39.1666667,43.2827896 L46.0263167,30.8489396 C46.6635583,29.7651979 46.9997062,28.5309583 47,27.2738062 L47,12.5306896 C47,10.8002083 45.5971479,9.39735625 43.8666667,9.39735625 Z" id="Path"></path>
                            <path d="M36.78925,7.62545625 C36.7829833,7.60352292 36.7712333,7.58472292 36.7634,7.56278958 C36.7494958,7.51990208 36.7319687,7.47818958 36.7109167,7.43823958 C36.6976,7.41630625 36.6795833,7.39828958 36.6647,7.37713958 C36.6412979,7.34169375 36.6150562,7.30820625 36.5863667,7.27687292 C36.5691333,7.25963958 36.5472,7.24710625 36.5284,7.23143958 C36.4975563,7.20245625 36.4642646,7.1763125 36.4289167,7.15310625 L36.4210833,7.15310625 L23.88775,0.10310625 C23.6494208,-0.03084375 23.3584125,-0.03084375 23.1200833,0.10310625 L10.58675,7.15310625 L10.5789167,7.15310625 C10.5435688,7.1763125 10.5102771,7.20245625 10.4794333,7.23143958 C10.4606333,7.24710625 10.4387,7.25963958 10.4214667,7.27687292 C10.3927771,7.30820625 10.3665354,7.34169375 10.3431333,7.37713958 C10.32825,7.39828958 10.3102333,7.41630625 10.2969167,7.43823958 C10.2758646,7.47818958 10.2583375,7.51980417 10.2444333,7.56278958 C10.2366,7.58472292 10.22485,7.60352292 10.2185833,7.62545625 C10.1977271,7.69203958 10.1858792,7.76097292 10.1833333,7.83068958 L10.1833333,21.7293729 C10.1836271,22.008925 10.3328521,22.2671312 10.575,22.4069562 L23.1083333,29.6582729 C23.1554312,29.6838292 23.2049771,29.7042938 23.2563833,29.7193729 C23.2712667,29.7240729 23.2845833,29.7326896 23.2986833,29.7366062 C23.4305771,29.77215 23.5694229,29.77215 23.7013167,29.7366062 C23.7154167,29.7326896 23.7287333,29.7240729 23.7436167,29.7193729 C23.7950229,29.7042938 23.8445688,29.6838292 23.8916667,29.6582729 L36.425,22.4069562 C36.6671479,22.2671312 36.8163729,22.008925 36.8166667,21.7293729 L36.8166667,7.83068958 C36.8166667,7.76136458 36.8074625,7.69233333 36.78925,7.62545625 Z M23.5,1.67917292 L27.8208667,4.10750625 L16.8855333,10.2590229 L12.5646667,7.83068958 L23.5,1.67917292 Z M22.7166667,27.6231729 L11.75,21.2781729 L11.75,9.17018958 L22.7166667,15.3389396 L22.7166667,27.6231729 Z M23.5,13.9822062 L18.4866667,11.1598562 L29.4180833,5.01068958 L34.4353333,7.83068958 L23.5,13.9822062 Z M35.25,21.2773896 L24.2833333,27.6223896 L24.2833333,15.3389396 L35.25,9.17018958 L35.25,21.2773896 Z" id="Shape"></path>
                            <rect id="Rectangle" x="32.1166667" y="19.5806896" width="1.56666667" height="1.56666667"></rect>
                            <rect id="Rectangle" x="28.9833333" y="21.1473563" width="1.56666667" height="1.56666667"></rect>
                            <rect id="Rectangle" x="25.85" y="22.7140229" width="1.56666667" height="1.56666667"></rect>
                        </g>
                    </g>
                </g>
            </g>
        </g>
    </g>
</svg>