<?xml version="1.0" encoding="UTF-8"?>
<svg width="60px" height="63px" viewBox="0 0 60 63" version="1.1" xmlns="http://www.w3.org/2000/svg" xmlns:xlink="http://www.w3.org/1999/xlink">
    <title>ico_poradime</title>
    <defs>
        <linearGradient x1="50%" y1="0%" x2="50%" y2="100%" id="linearGradient-1">
            <stop stop-color="#4CBB9B" offset="0%"></stop>
            <stop stop-color="#41A2C5" offset="100%"></stop>
        </linearGradient>
        <circle id="path-2" cx="25" cy="25" r="25"></circle>
    </defs>
    <g id="Page-1" stroke="none" stroke-width="1" fill="none" fill-rule="evenodd">
        <g id="01_medplus_uvod" transform="translate(-579.000000, -1469.000000)">
            <g id="Benefity" transform="translate(150.000000, 1418.000000)">
                <g id="2" transform="translate(303.000000, 51.000000)">
                    <g id="ico_poradime" transform="translate(126.000000, 0.000000)">
                        <g id="Oval">
                            <use fill="url(#linearGradient-1)" xlink:href="#path-2"></use>
                            <use fill="#FFFFFF" xlink:href="#path-2"></use>
                        </g>
                        <g id="support" transform="translate(13.000000, 16.000000)" fill="#475558" fill-rule="nonzero">
                            <path d="M15,0 C8.3726,0 3,5.29119697 3,11.8181818 L3,20.4848485 C3.0035,23.5293106 5.5087,25.996553 8.6,26 L9.4,26 L9.4,24.4242424 L8.6,24.4242424 C6.392,24.4216818 4.6026,22.6593939 4.6,20.4848485 L4.6,11.8181818 C4.6,6.16140909 9.2562,1.57575758 15,1.57575758 C20.7438,1.57575758 25.4,6.16140909 25.4,11.8181818 L25.4,20.4848485 C25.3974,22.6593939 23.608,24.4216818 21.4,24.4242424 L20.6,24.4242424 L20.6,26 L21.4,26 C24.4913,25.996553 26.9965,23.5293106 27,20.4848485 L27,11.8181818 C27,5.29119697 21.6274,0 15,0 Z" id="Path"></path>
                            <path d="M6.44783898,36.7673248 L7,35.8522592 L5.72421347,35 L5.17205245,35.9158606 C3.50206752,38.6857029 3.62603937,42.2521532 5.48401209,44.8860474 L5.48401209,47 L6.99471255,47 L6.99471255,44.6149463 C6.99480697,44.4343779 6.93645616,44.2590765 6.82929085,44.1180602 C5.22341627,42.0051014 5.07017459,39.0518087 6.44783898,36.7673248 Z" id="Path"></path>
                            <path d="M43.0869565,0 L32.9130435,0 C30.7530435,0.00259999877 29.0025435,1.79199915 29,4 L29,12 C29.0025435,14.2079933 30.7530435,15.9973924 32.9130435,16 L34.4782609,16 L34.4782609,19.1999909 C34.478163,19.5234907 34.6687283,19.8152906 34.9611304,19.9391905 C35.0561196,19.9796905 35.1579565,20.0002905 35.2608696,20 C35.4684565,20 35.6674348,19.9155906 35.8141739,19.7655906 L39.497913,16 L43.0869565,16 C45.2469565,15.9973924 46.9974565,14.2079933 47,12 L47,4 C46.9974565,1.79199915 45.2469565,0.00259999877 43.0869565,0 Z M45.4347826,11.9999943 C45.4347826,13.3254937 44.3836413,14.3999932 43.0869565,14.3999932 L39.173913,14.3999932 C38.9663261,14.3999932 38.7673478,14.4843931 38.6206087,14.6343931 L36.0434783,17.2687918 L36.0434783,15.1999928 C36.0434783,14.758193 35.6930652,14.3999932 35.2608696,14.3999932 L32.9130435,14.3999932 C31.6163587,14.3999932 30.5652174,13.3254937 30.5652174,11.9999943 L30.5652174,3.9999981 C30.5652174,2.67449873 31.6163587,1.59999924 32.9130435,1.59999924 L43.0869565,1.59999924 C44.3836413,1.59999924 45.4347826,2.67449873 45.4347826,3.9999981 L45.4347826,11.9999943 Z" id="Shape"></path>
                            <rect id="Rectangle" x="33" y="4" width="5" height="2"></rect>
                            <rect id="Rectangle" x="40" y="4" width="3" height="2"></rect>
                            <rect id="Rectangle" x="33" y="7" width="10" height="2"></rect>
                            <rect id="Rectangle" x="33" y="10" width="5" height="2"></rect>
                            <path d="M25.8279475,35.9158606 L25.2757865,35 L24,35.8522592 L24.552161,36.7681198 C25.9299198,39.0523056 25.7766782,42.0053995 24.1707092,44.1180602 C24.0635438,44.2590765 24.005193,44.4343779 24.0052875,44.6149463 L24.0052875,47 L25.5159879,47 L25.5159879,44.8860474 C27.3739606,42.2521532 27.4979325,38.6857029 25.8279475,35.9158606 Z" id="Path"></path>
                            <path d="M46.2166667,26.7149048 L39.1666667,26.7149048 C36.2276,26.7183182 33.8139542,29.0290636 33.6943,31.9539208 L31.3333333,36.1872641 L31.3333333,32.9564726 C31.3299063,29.9416978 28.8768979,27.4985142 25.85,27.4951008 L22.9869167,27.4951008 L22.9657667,27.4787167 L22.9516667,27.4951008 L21.15,27.4951008 C20.2847104,27.4951008 19.5833333,26.7965328 19.5833333,25.9347089 L19.5833333,24.0989078 C22.0037354,22.7070381 23.4962792,20.1361949 23.5,17.3525532 L23.5,11.1109855 C23.498825,9.81829828 23.1758958,8.54609123 22.56,7.40817541 C22.3626979,7.04616448 21.9167854,6.89919506 21.5416667,7.07269114 L8.28296667,13.2861718 C8.00840833,13.4149042 7.83323542,13.6900208 7.83333333,13.9922492 L7.83333333,17.3525532 C7.83705417,20.1361949 9.32959792,22.7070381 11.75,24.0989078 L11.75,25.9347089 C11.75,26.7965328 11.0486229,27.4951008 10.1833333,27.4951008 L5.48333333,27.4951008 C2.45643542,27.4985142 0.00342708333,29.9416978 0,32.9564726 L0,47 L1.56666667,47 L1.56666667,32.9564726 C1.5692125,30.8031317 3.32133333,29.0580284 5.48333333,29.0554927 L7.9759,29.0554927 L15.0298167,38.8719184 C15.1747333,39.0736966 15.4073833,39.1947245 15.6564833,39.1980403 L15.6666667,39.1980403 C15.9132208,39.1980403 16.1453813,39.0823763 16.2933333,38.8859619 L23.735,29.0554927 L25.85,29.0554927 C28.012,29.0580284 29.7641208,30.8031317 29.7666667,32.9564726 L29.7666667,39.1980403 C29.7670583,39.6289035 30.1180896,39.9779437 30.5506854,39.9775536 C30.8348396,39.977261 31.0965708,39.823855 31.2346333,39.5764354 L34.9272667,32.9564726 L39.4181167,32.9564726 L31.7806167,47 L33.5627,47 L41.2033333,32.9564726 L41.5166667,32.9564726 C44.5435646,32.9530592 46.9965729,30.5098755 47,27.4951008 C47,27.0642376 46.6492625,26.7149048 46.2166667,26.7149048 Z M9.4,17.3525532 L9.4,14.4876736 L21.49545,8.81876972 C21.7847937,9.54864304 21.9333333,10.3263034 21.9333333,11.1109855 L21.9333333,17.3525532 C21.9333333,20.7996541 19.1276292,23.594121 15.6666667,23.594121 C12.2057042,23.594121 9.4,20.7996541 9.4,17.3525532 Z M15.6831167,37.1008736 L13.26575,33.7366685 L18.22895,33.7366685 L15.6831167,37.1008736 Z M19.4141333,32.1762766 L12.1416667,32.1762766 L9.89898333,29.0554927 L10.1833333,29.0554927 C11.9138146,29.0554927 13.3166667,27.6582593 13.3166667,25.9347089 L13.3166667,24.7948426 C14.8463208,25.2743705 16.4870125,25.2743705 18.0166667,24.7948426 L18.0166667,25.9347089 C18.0166667,27.6582593 19.4195187,29.0554927 21.15,29.0554927 L21.7766667,29.0554927 L19.4141333,32.1762766 Z M41.5166667,31.3960806 L35.3283333,31.3960806 C35.7028646,29.5808572 37.3060542,28.2773448 39.1666667,28.2752968 L45.355,28.2752968 C44.9804688,30.0905202 43.3772792,31.3940326 41.5166667,31.3960806 Z" id="Shape"></path>
                        </g>
                    </g>
                </g>
            </g>
        </g>
    </g>
</svg>