<?xml version="1.0" encoding="UTF-8"?>
<svg width="134px" height="70px" viewBox="0 0 134 70" version="1.1" xmlns="http://www.w3.org/2000/svg" xmlns:xlink="http://www.w3.org/1999/xlink">
    <title>A3A8C68F-521C-4E82-B565-ABC7934B0D1F</title>
    <g id="Page-1" stroke="none" stroke-width="1" fill="none" fill-rule="evenodd">
        <g id="01_medplus_uvod" transform="translate(-200.000000, -64.000000)">
            <g id="Hlavicka" transform="translate(150.000000, 10.000000)">
                <g id="Logo" transform="translate(50.000000, 54.000000)">
                    <path d="M43.2277067,0.509786667 L43.2277067,54.02432 L31.0635733,54.02432 L31.0477067,17.8968533 L26.20464,54.02432 L17.5787733,54.02432 L12.4697067,18.7228533 L12.4519733,54.02432 L0.288773333,54.02432 L0.288773333,0.509786667 L18.2955733,0.509786667 C18.82944,3.72512 19.3801067,7.51912 19.9475733,11.8852533 L21.9243733,25.4969867 L25.1219733,0.509786667 L43.2277067,0.509786667 Z" id="Fill-1" fill="#77B731"></path>
                    <polygon id="Fill-3" fill="#77B731" points="48.8131467 0.509786667 72.02048 0.509786667 72.02048 11.2169867 62.7291467 11.2169867 62.7291467 21.3660533 71.4231467 21.3660533 71.4231467 31.5477867 62.7291467 31.5477867 62.7291467 43.3152533 72.94448 43.3152533 72.94448 54.02432 48.8131467 54.02432"></polygon>
                    <path d="M94.5793333,37.1007467 C94.5793333,40.67168 94.346,42.8575467 93.8830667,43.6630133 C93.422,44.4666133 92.1862667,44.8698133 90.1805333,44.8698133 L90.1805333,9.66448 C91.7028,9.66448 92.736,9.82314667 93.2885333,10.1442133 C93.8382667,10.46248 94.1910667,10.9646133 94.346,11.6478133 C94.4990667,12.3319467 94.5793333,13.8859467 94.5793333,16.30888 L94.5793333,37.1007467 Z M99.4065333,35.39368 L99.4065333,25.39208 L99.4065333,23.46008 L108.493467,23.4563467 L108.493467,19.38328 C108.493467,14.31528 108.339467,10.9170133 108.030533,9.18568 C107.7216,7.45528 106.9516,5.88541333 105.717733,4.47421333 C104.482,3.06488 102.680667,2.04941333 100.3128,1.43434667 C97.9421333,0.81648 93.3977333,0.509413333 86.6768,0.509413333 L76.2664,0.509413333 L76.2664,54.02488 L93.8177333,54.02488 C97.1441333,54.02488 99.6361333,53.8438133 101.2872,53.47888 C102.941067,53.1158133 104.328,52.4783467 105.452667,51.5618133 C106.575467,50.6471467 107.364133,49.37968 107.814933,47.7622133 C108.266667,46.14008 108.493467,42.9303467 108.493467,38.1274133 L108.493467,35.39368 L99.4065333,35.39368 Z" id="Fill-5" fill="#77B731"></path>
                    <polygon id="Fill-7" fill="#77B731" points="101.344133 25.3925467 113.208667 25.3925467 113.208667 13.49348 121.274533 13.49348 121.274533 25.3925467 133.209067 25.3925467 133.209067 33.4584133 121.274533 33.4584133 121.274533 45.2921467 113.208667 45.2921467 113.208667 33.4584133 101.344133 33.4584133"></polygon>
                    <path d="M85.8311067,56.25004 L85.8311067,68.4813733 L83.0497733,68.4813733 L83.0469733,60.2241733 L81.9409733,68.4813733 L79.96884,68.4813733 L78.8003067,60.41364 L78.7965733,68.4813733 L76.01524,68.4813733 L76.01524,56.25004 L80.13404,56.25004 C80.25444,56.9845733 80.38044,57.85164 80.5101733,58.8493733 L80.9619067,61.96204 L81.6927067,56.25004 L85.8311067,56.25004 Z" id="Fill-9" fill="#FFFFFF"></path>
                    <path d="M90.8697067,62.0140267 L90.8697067,61.2822933 C90.8697067,60.7614933 90.8445067,60.4282933 90.7875733,60.2770933 C90.73344,60.1258933 90.6195733,60.0502933 90.4469067,60.0502933 C90.2369067,60.0502933 90.1053067,60.1146933 90.0549067,60.2434933 C90.0035733,60.3722933 89.98024,60.7176267 89.98024,61.2822933 L89.98024,62.0140267 L90.8697067,62.0140267 Z M93.9301067,63.6464267 L89.98024,63.6464267 L89.98024,65.8154933 C89.98024,66.2690933 90.01104,66.5602933 90.0773067,66.6918933 C90.14264,66.8234933 90.2677067,66.8888267 90.4553067,66.8888267 C90.6877067,66.8888267 90.84264,66.8010933 90.92104,66.6256267 C90.9975733,66.45296 91.0377067,66.11696 91.0377067,65.6176267 L91.0377067,64.2960267 L93.9301067,64.2960267 L93.9301067,65.03616 C93.9301067,65.6568267 93.89184,66.1318933 93.81344,66.4660267 C93.7369067,66.7964267 93.55304,67.15296 93.26464,67.53096 C92.97904,67.9080267 92.6131733,68.19176 92.17264,68.37936 C91.7339733,68.56976 91.18144,68.6640267 90.5159733,68.6640267 C89.87104,68.6640267 89.3017067,68.56976 88.8079733,68.3830933 C88.3161067,68.19736 87.9297067,67.9416267 87.6553067,67.61776 C87.3809067,67.2920267 87.19144,66.9336267 87.08504,66.5444267 C86.98144,66.1542933 86.9263733,65.58496 86.9263733,64.84016 L86.9263733,61.91696 C86.9263733,61.0386933 87.0439733,60.3480267 87.28104,59.8412267 C87.51904,59.3362933 87.90544,58.94896 88.4467733,58.6782933 C88.9843733,58.40856 89.6041067,58.2750933 90.3041067,58.2750933 C91.15904,58.2750933 91.8665067,58.4374933 92.42464,58.7622933 C92.9809067,59.0880267 93.37104,59.51736 93.59504,60.0530933 C93.8171733,60.5906933 93.9301067,61.3438933 93.9301067,62.3164267 L93.9301067,63.6464267 Z" id="Fill-11" fill="#FFFFFF"></path>
                    <path d="M98.8166667,60.97952 C98.8166667,60.6108533 98.7886667,60.3653867 98.7242667,60.2393867 C98.6626667,60.11432 98.5357333,60.0508533 98.35,60.0508533 C98.1708,60.0508533 98.0485333,60.1077867 97.9832,60.22072 C97.9216,60.3336533 97.8898667,60.5856533 97.8898667,60.97952 L97.8898667,65.8916533 C97.8898667,66.2985867 97.9178667,66.5664533 97.9804,66.6952533 C98.0410667,66.82312 98.1549333,66.8893867 98.3294667,66.8893867 C98.5245333,66.8893867 98.6561333,66.8156533 98.7205333,66.6728533 C98.7868,66.52912 98.8166667,66.1781867 98.8166667,65.6181867 L98.8166667,60.97952 Z M101.8724,56.25032 L101.8724,68.4816533 L98.8166667,68.4816533 L98.8166667,67.7545867 C98.5273333,68.0588533 98.2193333,68.2837867 97.8982667,68.4368533 C97.5744,68.58712 97.2374667,68.6636533 96.8856,68.6636533 C96.4114667,68.6636533 95.9998667,68.5385867 95.6545333,68.2893867 C95.3064,68.04112 95.0833333,67.7517867 94.9844,67.4241867 C94.8873333,67.0965867 94.8378667,66.56272 94.8378667,65.8216533 L94.8378667,61.1316533 C94.8378667,60.3597867 94.8873333,59.8137867 94.9844,59.4908533 C95.0833333,59.1688533 95.3082667,58.8860533 95.662,58.64152 C96.0157333,58.3960533 96.4348,58.27472 96.9229333,58.27472 C97.3,58.27472 97.6472,58.3428533 97.9608,58.47912 C98.2753333,58.61632 98.5628,58.82072 98.8166667,59.09232 L98.8166667,56.25032 L101.8724,56.25032 Z" id="Fill-13" fill="#FFFFFF"></path>
                    <path d="M106.94236,61.37236 C106.94236,60.7526267 106.919027,60.3774267 106.874227,60.24676 C106.829427,60.1160933 106.70156,60.05076 106.495293,60.05076 C106.293693,60.05076 106.16396,60.12636 106.107027,60.2766267 C106.04916,60.4278267 106.020227,60.79276 106.020227,61.37236 L106.020227,65.5284933 C106.020227,66.13236 106.04916,66.5094267 106.11076,66.6606267 C106.16956,66.8118267 106.302093,66.8892933 106.50276,66.8892933 C106.69876,66.8892933 106.82196,66.81836 106.86956,66.6802267 C106.91716,66.54116 106.94236,66.20516 106.94236,65.6722267 L106.94236,61.37236 Z M106.072493,58.4556933 L106.020227,59.34236 C106.290893,58.9830267 106.59236,58.7160933 106.919027,58.5396933 C107.24476,58.36236 107.604093,58.2746267 107.99236,58.2746267 C108.464627,58.2746267 108.87436,58.4006267 109.21876,58.65636 C109.564093,58.9102267 109.780627,59.20516 109.864627,59.53556 C109.95236,59.86876 109.993427,60.43156 109.993427,61.2286267 L109.993427,65.45196 C109.993427,66.3638267 109.93836,67.0124933 109.830093,67.3970267 C109.72276,67.78436 109.50156,68.0904933 109.166493,68.3200933 C108.82956,68.5478267 108.425427,68.66356 107.954093,68.66356 C107.577027,68.66356 107.224227,68.5748933 106.904093,68.3984933 C106.58116,68.22116 106.28716,67.9588933 106.020227,67.61076 L106.020227,69.9086267 L102.965427,69.9086267 L102.965427,58.4556933 L106.072493,58.4556933 Z" id="Fill-15" fill="#FFFFFF"></path>
                    <polygon id="Fill-17" fill="#FFFFFF" points="111.0004 68.4814667 114.141067 68.4814667 114.141067 56.2501333 111.0004 56.2501333"></polygon>
                    <path d="M122.225693,58.4556933 L122.225693,68.48156 L119.120493,68.48156 L119.17276,67.6490267 C118.96276,67.9868933 118.70236,68.24076 118.389693,68.4106267 C118.081693,68.5786267 117.727027,68.6644933 117.32196,68.6644933 C116.864627,68.6644933 116.483827,68.58236 116.17956,68.4218267 C115.87996,68.2594267 115.655027,68.0456933 115.514093,67.7806267 C115.369427,67.5118267 115.28076,67.23276 115.245293,66.9434267 C115.20796,66.65316 115.19116,66.07916 115.19116,65.2176933 L115.19116,58.4556933 L118.244093,58.4556933 L118.244093,65.2774267 C118.244093,66.0586267 118.26836,66.5224933 118.315027,66.6680933 C118.361693,66.8136933 118.494227,66.8892933 118.706093,66.8892933 C118.93196,66.8892933 119.065427,66.8118267 119.10836,66.6606267 C119.15036,66.5094267 119.17276,66.02316 119.17276,65.20276 L119.17276,58.4556933 L122.225693,58.4556933 Z" id="Fill-19" fill="#FFFFFF"></path>
                    <path d="M129.55376,61.65908 L126.850827,61.65908 L126.850827,61.1149467 C126.850827,60.6520133 126.822827,60.3589467 126.772427,60.2357467 C126.71736,60.1116133 126.58576,60.0509467 126.37296,60.0509467 C126.201227,60.0509467 126.07336,60.10788 125.990293,60.21988 C125.90256,60.3337467 125.859627,60.5045467 125.859627,60.72948 C125.859627,61.0365467 125.88016,61.2633467 125.924027,61.40708 C125.967893,61.54988 126.09576,61.7076133 126.30856,61.8793467 C126.52416,62.04828 126.96376,62.30028 127.62736,62.6269467 C128.51496,63.0600133 129.095493,63.46788 129.373627,63.8496133 C129.650827,64.2341467 129.78896,64.7904133 129.78896,65.5212133 C129.78896,66.3369467 129.68256,66.9520133 129.471627,67.3673467 C129.260693,67.7836133 128.90696,68.1028133 128.40856,68.3268133 C127.914827,68.5508133 127.314693,68.6637467 126.614693,68.6637467 C125.840027,68.6637467 125.175493,68.5424133 124.624827,68.30068 C124.07416,68.0589467 123.69336,67.7304133 123.487093,67.3188133 C123.280827,66.9053467 123.179093,66.28188 123.179093,65.44468 L123.179093,64.9621467 L125.882027,64.9621467 L125.882027,65.59588 C125.882027,66.1353467 125.917493,66.4844133 125.98376,66.64588 C126.051893,66.8073467 126.186293,66.88948 126.387893,66.88948 C126.604427,66.88948 126.755627,66.8344133 126.84336,66.7261467 C126.92736,66.61788 126.970293,66.3892133 126.970293,66.04108 C126.970293,65.5641467 126.91336,65.2645467 126.805093,65.14228 C126.688427,65.0228133 126.096693,64.6653467 125.02896,64.06988 C124.132027,63.5649467 123.58416,63.10948 123.389093,62.69788 C123.194027,62.2872133 123.093227,61.8000133 123.093227,61.23628 C123.093227,60.43548 123.199627,59.84468 123.412427,59.4648133 C123.62336,59.0840133 123.982693,58.7909467 124.486693,58.5856133 C124.994427,58.3793467 125.581493,58.2748133 126.25256,58.2748133 C126.917093,58.2748133 127.48456,58.3588133 127.94936,58.5268133 C128.41416,58.69668 128.77256,58.9188133 129.02176,59.1960133 C129.270027,59.4732133 129.421227,59.7308133 129.47536,59.96788 C129.52856,60.2040133 129.55376,60.5736133 129.55376,61.07668 L129.55376,61.65908 Z" id="Fill-20" fill="#FFFFFF"></path>
                    <polygon id="Fill-21" fill="#77B731" points="0.119466667 68.6681333 73.6857333 68.6681333 73.6857333 56.4405333 0.119466667 56.4405333"></polygon>
                </g>
            </g>
        </g>
    </g>
</svg>