<?xml version="1.0" encoding="UTF-8"?>
<svg width="58px" height="63px" viewBox="0 0 58 63" version="1.1" xmlns="http://www.w3.org/2000/svg" xmlns:xlink="http://www.w3.org/1999/xlink">
    <title>A1AE089D-6333-49E3-8987-B48FF74EFE84</title>
    <defs>
        <linearGradient x1="50%" y1="0%" x2="50%" y2="100%" id="linearGradient-1">
            <stop stop-color="#4CBB9B" offset="0%"></stop>
            <stop stop-color="#41A2C5" offset="100%"></stop>
        </linearGradient>
        <circle id="path-2" cx="25" cy="25" r="25"></circle>
    </defs>
    <g id="Page-1" stroke="none" stroke-width="1" fill="none" fill-rule="evenodd">
        <g id="01_medplus_uvod" transform="translate(-835.000000, -1569.000000)">
            <g id="Benefity" transform="translate(150.000000, 1518.000000)">
                <g id="3" transform="translate(556.000000, 51.000000)">
                    <g id="ico_od2006" transform="translate(129.000000, 0.000000)">
                        <g id="Oval">
                            <use fill="url(#linearGradient-1)" xlink:href="#path-2"></use>
                            <use fill="#FFFFFF" xlink:href="#path-2"></use>
                        </g>
                        <path d="M35.0050385,11.8787134 C36.4740257,10.7070955 38.5254355,10.7070955 39.9945575,11.8787134 C40.6421726,12.395054 41.499239,12.5563342 42.2885536,12.3098774 C44.0801361,11.7512871 45.9926751,12.4960742 46.9413343,14.1221476 C47.3595632,14.8389036 48.1014651,15.3006716 48.9259352,15.3572754 C50.7964492,15.4863267 52.3128492,16.8759641 52.6132198,18.7368485 C52.7453559,19.5567914 53.2709371,20.2564851 54.0197084,20.6093787 C55.717543,21.408603 56.6319896,23.2552688 56.2436629,25.099768 C56.0721958,25.912263 56.3110106,26.7560391 56.8823882,27.3563375 C58.1784266,28.7184854 58.3678082,30.7724729 57.3427768,32.3508799 C56.890874,33.046511 56.8103262,33.9203494 57.1271296,34.6878864 C57.8458638,36.428657 57.2844537,38.4129053 55.761723,39.5126173 C55.0904015,39.9971352 54.7015361,40.7821408 54.721471,41.6125107 C54.7657858,43.4972284 53.5298215,45.1434787 51.7145326,45.6158092 C51.1784452,45.7554229 50.7133422,46.0670148 50.3797019,46.4923559 L50.3797019,46.4923559 L54.5541794,56.624169 C55.1387572,58.043327 53.816049,59.5064951 52.3548741,59.0558312 L52.3548741,59.0558312 L47.7846617,57.6456106 C47.6510439,57.6043088 47.5069199,57.6647043 47.4417274,57.7884743 L47.4417274,57.7884743 L45.2018788,62.034438 C44.4862425,63.390763 42.5221153,63.2992219 41.9365947,61.8789806 L41.9365947,61.8789806 L37.5852621,51.3180347 C37.5284207,51.3165452 37.4710405,51.3165452 37.4141991,51.3180347 L37.4141991,51.3180347 L33.0630012,61.8789806 C32.4789623,63.2970552 30.5142963,63.3927942 29.7975824,62.034438 L29.7975824,62.034438 L27.5578685,57.7884743 C27.4925413,57.6647043 27.3484173,57.6048505 27.2147995,57.6456106 L27.2147995,57.6456106 L22.6445871,59.0558312 C21.1844897,59.5064951 19.8601653,58.0438686 20.4452818,56.624169 L20.4452818,56.624169 L24.6197594,46.4923559 C24.286119,46.0670148 23.8210161,45.7554229 23.2849287,45.6158092 C21.4696397,45.1434787 20.2332713,43.4972284 20.2779902,41.6125107 C20.2979251,40.7821408 19.9090597,39.9971352 19.2377382,39.5126173 C17.7150075,38.4129053 17.1535974,36.428657 17.8723316,34.6878864 C18.1896738,33.9203494 18.109126,33.0470527 17.6572232,32.3514215 C16.6321918,30.7730145 16.8215734,28.7190271 18.1176118,27.3563375 C18.6884506,26.7560391 18.9272654,25.912263 18.7563371,25.099768 C18.3680104,23.2552688 19.282457,21.4091447 20.9802916,20.6093787 C21.7285242,20.2564851 22.2546441,19.5567914 22.3867802,18.7368485 C22.6871508,16.8759641 24.2035508,15.4863267 26.0740648,15.3572754 C26.8985349,15.3006716 27.6404368,14.8389036 28.058127,14.1221476 C29.0073249,12.4960742 30.9204027,11.7507454 32.7109076,12.3098774 C33.5002223,12.5563342 34.3578274,12.3955956 35.0050385,11.8787134 Z M25.5488877,48.2172829 L21.845305,57.2071341 C21.7506142,57.4377473 21.9631634,57.6720167 22.2004966,57.5995692 L22.2004966,57.5995692 L26.770709,56.1893487 C27.5971996,55.9343607 28.4917112,56.3062126 28.8968748,57.0748329 L28.8968748,57.0748329 L31.1367234,61.3209319 C31.2524266,61.540441 31.5681525,61.5260869 31.6633821,61.2954737 L31.6633821,61.2954737 L35.5226726,51.9284893 C35.1701749,52.0274783 34.810269,52.0777176 34.453057,52.0777176 C33.3228285,52.0777176 32.2148248,51.5946893 31.4287428,50.684424 C30.8867288,50.0575841 30.072765,49.740711 29.2526051,49.8369917 C27.7820015,50.0093761 26.3849416,49.3683175 25.5488877,48.2172829 L25.5488877,48.2172829 Z M49.4511123,48.2172829 C48.6160013,49.3683175 47.2196148,50.0099177 45.7479337,49.8369917 C44.9266962,49.7401694 44.1132712,50.0570424 43.571796,50.684424 C42.5369318,51.8819063 40.9446983,52.3394764 39.478405,51.930656 L39.478405,51.930656 L43.3366179,61.2954737 C43.4313087,61.5260869 43.7475734,61.5398993 43.8632766,61.3203902 L43.8632766,61.3203902 L46.1031252,57.0742912 C46.5082888,56.3062126 47.4028004,55.9343607 48.229291,56.1893487 L48.229291,56.1893487 L52.8000422,57.5990276 C53.0362978,57.6720167 53.2499246,57.438289 53.154695,57.2065925 L53.154695,57.2065925 Z M39.0531718,13.0721332 C38.1387252,12.342648 36.8618135,12.342648 35.947367,13.0721332 C34.9076537,13.9015552 33.5295858,14.1607411 32.2621028,13.765056 C31.1477684,13.4170373 29.9565229,13.8808366 29.3656145,14.8927991 C28.694293,16.0438337 27.5025087,16.7855063 26.1781843,16.876912 C25.0138779,16.957349 24.069933,17.82225 23.8825718,18.9807325 C23.6700226,20.2977869 22.8256176,21.4224154 21.6233271,21.9884536 C20.5662382,22.4861069 19.9970157,23.6356519 20.2390632,24.7839782 C20.5142458,26.0895223 20.1306335,27.444764 19.2129542,28.4090602 C18.4058598,29.2568988 18.2885402,30.5360368 18.9261879,31.5183433 C19.6517916,32.6359302 19.7812338,34.0388383 19.2719508,35.2712579 C18.8247623,36.3551262 19.1740273,37.5902541 20.1221477,38.2747812 C21.2002491,39.0534222 21.8248313,40.3149562 21.7933126,41.649073 C21.7654307,42.8223158 22.5350798,43.8468721 23.6653083,44.1409953 C24.7218584,44.4161603 25.6089618,45.1074581 26.1414125,46.0420982 C26.1430288,46.0453482 26.1450492,46.0484628 26.1466656,46.0517128 C26.2592709,46.2510449 26.3570597,46.4605332 26.4354524,46.6800423 C26.8311872,47.7846293 27.9176397,48.4606251 29.0762889,48.324126 C29.2325355,48.305574 29.3887821,48.2966365 29.543547,48.2966365 C30.6984248,48.2966365 31.8049469,48.7975397 32.5725755,49.6857322 C33.3381838,50.5712164 34.5935442,50.8076524 35.6258492,50.2596245 C35.9772693,50.0723444 36.3498366,49.9427515 36.730755,49.8681374 C36.7323713,49.8675957 36.733853,49.8675957 36.7360081,49.8671894 C37.240038,49.7687421 37.7583456,49.7682005 38.2629143,49.8666478 C38.266147,49.8671894 38.269245,49.8681374 38.2718042,49.868679 C38.6517797,49.9432931 39.0236735,50.0728861 39.3746896,50.2596245 C40.4069945,50.8071108 41.662355,50.5712164 42.4279632,49.6857322 C43.2982297,48.6779675 44.6057173,48.1690748 45.9237111,48.324126 C47.0838419,48.4606251 48.1688128,47.7840876 48.5645476,46.6800423 C48.6433444,46.4599915 48.7407291,46.2505032 48.8538732,46.0511711 C48.8554895,46.0484628 48.8564324,46.0458899 48.8580488,46.0426399 C49.3904994,45.1074581 50.2781416,44.4161603 51.3352305,44.1409953 C52.4649202,43.8468721 53.2345693,42.8223158 53.2066874,41.649073 C53.1751687,40.3149562 53.7997509,39.0534222 54.8778523,38.2747812 C55.8259727,37.5902541 56.1752377,36.3551262 55.7280492,35.2712579 C55.219305,34.0388383 55.3482084,32.6359302 56.0738121,31.5183433 C56.7119986,30.5360368 56.5941402,29.2568988 55.7875845,28.4090602 C54.8699053,27.444764 54.4868318,26.0895223 54.7614755,24.7839782 C55.0035231,23.6356519 54.4343006,22.4861069 53.3772117,21.9884536 C52.1749212,21.4224154 51.3305162,20.2977869 51.117967,18.9807325 C50.9306058,17.82225 49.9866609,16.957349 48.8223545,16.876912 C47.49803,16.7855063 46.3062458,16.0438337 45.6349243,14.8927991 C45.0445547,13.8808366 43.8533092,13.4170373 42.738436,13.765056 C41.4708182,14.1607411 40.0934238,13.9015552 39.0531718,13.0721332 Z M51.7482221,32.5520751 L51.8508442,32.5576599 C52.2659752,32.6089825 52.5610927,32.9888239 52.5101779,33.4061755 C51.5836087,41.009504 45.1307597,46.7435523 37.5,46.7435523 C29.8723383,46.7435523 23.4201628,41.012754 22.4903609,33.4130817 C22.4394461,32.9957301 22.7345636,32.615347 23.1496946,32.5640244 C23.5653643,32.5127018 23.9431847,32.8095333 23.9940996,33.2268849 C24.8306922,40.0643015 30.636869,45.2201241 37.5,45.2201241 C44.3663637,45.2201241 50.1729445,40.0615931 51.0063045,33.2210621 C51.0573541,32.8037104 51.4367908,32.5068789 51.8508442,32.5576599 Z M37.5,20.5813477 C38.1229659,20.5813477 38.6639023,20.9615953 38.8775291,21.5503834 L38.8775291,21.5503834 L40.9157388,27.1637762 L46.8560721,27.378004 C47.479038,27.4002122 48.0056967,27.8000952 48.198311,28.3957895 C48.3907907,28.9913483 48.1977723,29.6261778 47.7073466,30.0122483 L47.7073466,30.0122483 L43.026684,33.6955592 L44.6598648,39.4416594 C44.8309279,40.0441245 44.6156847,40.6709644 44.1116548,41.0391601 C43.6076249,41.4073558 42.9477525,41.4195432 42.4310612,41.0693578 L42.4310612,41.0693578 L37.5,37.7325761 L32.5689388,41.0698995 C32.0517087,41.4200848 31.3918363,41.4073558 30.8883452,41.0397017 C30.3843153,40.6709644 30.1690721,40.0441245 30.3401352,39.4416594 L30.3401352,39.4416594 L31.973316,33.6955592 L27.2926534,30.0122483 C26.8022277,29.6261778 26.6096134,28.9913483 26.8022277,28.3957895 C26.9948421,27.8000952 27.5215008,27.4002122 28.1439279,27.378004 L28.1439279,27.378004 L34.0842612,27.1637762 L36.1224709,21.5503834 C36.3360977,20.9615953 36.8770341,20.5813477 37.5,20.5813477 Z M37.5,22.1988899 L35.496407,27.7170853 C35.2907272,28.2831235 34.7708033,28.6629649 34.1715438,28.6846315 L34.1715438,28.6846315 L28.3318279,28.8956093 L32.9330202,32.5164934 C33.4049927,32.8883453 33.603803,33.5029978 33.4392053,34.082713 L33.4392053,34.082713 L31.8339064,39.7305014 L36.6813218,36.4503236 C36.9297,36.2821371 37.21485,36.1980439 37.5,36.1980439 C37.78515,36.1980439 38.0703,36.2821371 38.319217,36.4508652 L38.319217,36.4508652 L43.1660936,39.7310431 L41.5607947,34.082713 C41.396197,33.5029978 41.5950073,32.8883453 42.0669798,32.5164934 L42.0669798,32.5164934 L46.6681721,28.8950677 L40.828995,28.6846315 C40.2297355,28.6629649 39.7092728,28.2831235 39.5041318,27.7170853 L39.5041318,27.7170853 L37.5,22.1988899 Z M37.5,16.3348424 C45.1302209,16.3348424 51.5836087,22.0682136 52.5105819,29.6711358 C52.5610927,30.0890291 52.2659752,30.4688705 51.8503054,30.5200577 C51.8193255,30.5238494 51.7882109,30.5258806 51.757231,30.5258806 C51.3799494,30.5258806 51.0531785,30.2424553 51.0063045,29.856791 C50.1724058,23.0161244 44.3658249,17.8582706 37.5,17.8582706 C30.6374078,17.8582706 24.831231,23.0135515 23.9946383,29.8504264 C23.9435888,30.267778 23.5648256,30.5646095 23.1502333,30.5132869 C22.7345636,30.4619643 22.4394461,30.0815812 22.4903609,29.6642296 C23.4207016,22.065099 29.8734159,16.3348424 37.5,16.3348424 Z" id="Combined-Shape" fill="#475558"></path>
                    </g>
                </g>
            </g>
        </g>
    </g>
</svg>