<?xml version="1.0" encoding="UTF-8"?>
<svg width="64px" height="64px" viewBox="0 0 64 64" version="1.1" xmlns="http://www.w3.org/2000/svg" xmlns:xlink="http://www.w3.org/1999/xlink">
    <title>ico_doprava</title>
    <defs>
        <linearGradient x1="50%" y1="0%" x2="50%" y2="100%" id="linearGradient-1">
            <stop stop-color="#4CBB9B" offset="0%"></stop>
            <stop stop-color="#41A2C5" offset="100%"></stop>
        </linearGradient>
        <circle id="path-2" cx="25" cy="25" r="25"></circle>
    </defs>
    <g id="Page-1" stroke="none" stroke-width="1" fill="none" fill-rule="evenodd">
        <g id="01_medplus_uvod" transform="translate(-1337.000000, -1468.000000)">
            <g id="Benefity" transform="translate(150.000000, 1418.000000)">
                <g id="5" transform="translate(1061.000000, 50.000000)">
                    <g id="ico_doprava" transform="translate(126.000000, 0.000000)">
                        <g id="Oval">
                            <use fill="url(#linearGradient-1)" xlink:href="#path-2"></use>
                            <use fill="#FFFFFF" xlink:href="#path-2"></use>
                        </g>
                        <g id="delivery-(1)" transform="translate(18.000000, 18.000000)" fill="#475558" fill-rule="nonzero">
                            <path d="M45.9846933,31.7934549 L45.4069971,29.1144659 C45.3691613,28.9388726 45.2631,28.7855079 45.1121566,28.6881261 C44.9612132,28.5907443 44.7777584,28.5573267 44.6021692,28.5952281 L42.0510969,29.145419 L37.4887288,7.98705516 C37.4095625,7.62186689 37.0496454,7.38972638 36.6842878,7.46820418 L23.1167468,10.3932701 L15.524279,12.030688 L13.04479,0.534327632 C12.9773934,0.222598373 12.7016914,0 12.3827416,0 L0.677138967,0 C0.497519103,0 0.325226492,0.0712013705 0.198216048,0.198204263 C0.071205604,0.325207156 0,0.497489524 0,0.677098708 L0,3.41760691 C0,3.79155814 0.303165503,4.09470551 0.677138967,4.09470551 L9.62349753,4.09470551 L15.2507149,30.1866032 C11.1476928,31.4364248 8.73568911,35.6735585 9.75582121,39.8394074 C10.7759533,44.0052563 14.8728657,46.6486777 19.089181,45.8615042 C23.3054962,45.0743307 26.1724921,41.1307684 25.6206128,36.8774981 L45.4654245,32.597848 C45.8309231,32.5190558 46.0633831,32.1589549 45.9846933,31.7934549 Z M19.4087344,30.0411237 L17.0031503,18.8925986 L23.9339566,17.3979518 L24.9512127,22.1093973 C25.008065,22.3744819 25.217812,22.5799517 25.4840242,22.6313436 C25.5264705,22.6396425 25.5696241,22.6437891 25.6128741,22.6437248 C25.8377488,22.6436744 26.0479457,22.5320592 26.173932,22.3458015 L27.9948551,19.6528836 L30.5459274,21.3800654 C30.7747951,21.5348929 31.0747853,21.5351312 31.3038988,21.3806676 C31.5330122,21.2262039 31.6452799,20.9480296 31.5875604,20.6778174 L30.5714652,15.9663719 L37.5022716,14.4717251 L40.728935,29.4309612 L24.041525,33.0292566 C22.8926797,31.523809 21.2540481,30.4668976 19.4087344,30.0411237 L19.4087344,30.0411237 Z M28.0532825,10.7140214 L29.1049759,15.5891313 L29.9078691,19.311239 L28.1929666,18.1504986 C27.8830877,17.9409459 27.4620043,18.0221785 27.252324,18.331961 L25.9413832,20.2723321 L24.0643542,11.5741301 L28.0532825,10.7140214 Z M37.2167124,13.1480941 L30.2859061,14.6419671 L29.3769922,10.4284792 L36.3077986,8.93383245 L37.2167124,13.1480941 Z M22.7406445,11.8596722 L23.6495583,16.073547 L16.7187519,17.5689676 L15.8098381,13.354319 L22.7406445,11.8596722 Z M10.1698519,2.74050832 L1.35427782,2.74050832 L1.35427782,1.3541973 L11.8360004,1.3541973 L14.3429619,12.9782391 L17.9801649,29.8445717 C17.5104822,29.8218319 17.0397098,29.8403458 16.5732638,29.8999003 L10.8319002,3.27483584 C10.7646364,2.96302477 10.4888536,2.74044535 10.1698519,2.74050832 L10.1698519,2.74050832 Z M19.0306975,44.4919555 C16.3686198,45.0676095 13.6219196,43.9827751 12.0717707,41.7434635 C10.5216218,39.5041519 10.4734154,36.5515247 11.949637,34.2628086 C13.4258586,31.9740925 16.1356812,30.8001822 18.8151322,31.2886376 C21.4945831,31.7770931 23.61579,33.8316848 24.1893347,36.4940668 C24.9679546,40.126675 22.6596015,43.7041759 19.0287628,44.4919555 L19.0306975,44.4919555 Z M25.3377622,35.554254 C25.1997437,35.1048142 25.0224897,34.6683733 24.8080462,34.2499686 L44.2280016,30.0620171 L44.5205256,31.4162143 L25.3377622,35.554254 Z" id="Shape"></path>
                        </g>
                    </g>
                </g>
            </g>
        </g>
    </g>
</svg>